<svg height="120" viewBox="0 0 400 120" width="400" xmlns="http://www.w3.org/2000/svg"><g fill="#fff"><g transform="translate(33 18.949)"><path d="m49.4628423 38.7942474c.0730612-5.683159 3.0460035-10.932669 7.8772517-13.9093558-3.0616621-4.382145-8.005905-7.0609115-13.3412143-7.2282045-5.6131803-.5904691-11.0549139 3.3661696-13.915288 3.3661696-2.915729 0-7.3197243-3.3075448-12.0621002-3.2097586-6.23973.2020325-11.91583344 3.6712379-14.95158903 9.1383348-6.46476424 11.2171706-1.64263175 27.7026345 4.55007088 36.7697485 3.09834025 4.4399081 6.71941045 9.3993995 11.45750765 9.223525 4.6365129-.1927248 6.3681605-2.9629983 11.9648279-2.9629983 5.544722 0 7.16937 2.9629983 12.0036031 2.8511757 4.9751943-.0809357 8.1098027-4.4596395 11.0994386-8.9415899 2.2261523-3.1635968 3.939173-6.66006 5.0756087-10.3598749-5.9090199-2.5046821-9.7512202-8.3073554-9.758117-14.7371716zm-9.1309948-27.1007084c2.7126826-3.26358651 4.0491184-7.45837404 3.7254959-11.693539-4.1443758.43623722-7.972618 2.42130404-10.7219485 5.55967543-2.7148376 3.09642517-4.090168 7.14737827-3.8230691 11.26061987 4.1999469.0433381 8.1877078-1.8462352 10.8195217-5.1267563z"/><path d="m26.323691 31.0497426h-15.8222932l-3.79970363 11.2440709h-6.70169417l14.9866205-41.60016475h6.9628251l14.9866205 41.60016475h-6.8159808zm-14.1836058-5.1885636h12.5417763l-6.1826746-18.24829524h-.1730176zm57.1619868 1.2693443c0 9.4251274-5.0336245 15.4806012-12.6297559 15.4806012-3.926374.2058388-7.6248037-1.8551881-9.5220896-5.3063827h-.1437357v15.0226241h-6.2120568v-40.3634158h6.0130329v5.0446146h.1142532c1.981575-3.4295583 5.6839927-5.489698 9.6363428-5.3619591 7.6808686.0000335 12.7440091 6.0849538 12.7440091 15.4839177zm-6.3850744 0c0-6.14053-3.1664309-10.1775684-7.9976555-10.1775684-4.7463537 0-7.9388909 4.1220611-7.9388909 10.1775684 0 6.1111172 3.1925372 10.2037319 7.9388909 10.2037319 4.8312581 0 7.9976555-4.0075585 7.9976555-10.2037319zm39.6944544 0c0 9.4251274-5.0336243 15.4806012-12.6297557 15.4806012-3.926374.2058388-7.6248037-1.8551881-9.5220897-5.3063827h-.1437357v15.0226241h-6.2120568v-40.3634158h6.0128993v5.0446146h.1142532c1.9815893-3.4295562 5.6840213-5.4896838 9.6363762-5.3619256 7.6811026 0 12.7441092 6.0849203 12.7441092 15.4838842zm-6.3850408 0c0-6.14053-3.1664643-10.1775684-7.9976889-10.1775684-4.7463537 0-7.9388909 4.1220611-7.9388909 10.1775684 0 6.1111172 3.1925372 10.2037319 7.9388909 10.2037319 4.831258 0 7.9976889-4.0075585 7.9976889-10.2037319zm28.3998028 3.5724284c.460289 4.1253441 4.45915 6.8339778 9.923614 6.8339778 5.236024 0 9.00307-2.7087677 9.00307-6.4284616 0-3.228954-2.271994-5.1623332-7.65162-6.4873209l-5.379627-1.2987908c-7.622238-1.845107-11.16081-5.4175689-11.16081-11.2146246 0-7.17761962 6.241439-12.1077316 15.104116-12.1077316 8.771221 0 14.78422 4.93011198 14.98662 12.1077316h-6.270888c-.375384-4.15150746-3.799704-6.65743331-8.803946-6.65743331s-8.428528 2.53540576-8.428528 6.22561981c0 2.9410559 2.187123 4.6716603 7.537367 5.9964805l4.573336 1.1253953c8.516675 2.0185024 12.055247 5.4470823 12.055247 11.5319355 0 7.7828287-6.18595 12.6573309-16.024693 12.6573309-9.20547 0-15.420769-4.7599995-15.822293-12.2844101zm38.894682-25.91662126v7.17761966h5.755045v4.930112h-5.755045v16.7204992c0 2.597548 1.152326 3.8079996 3.682175 3.8079996.683217-.0119396 1.365329-.060023 2.043487-.1440496v4.9006656c-1.137423.2129908-2.293517.3094536-3.450426.2878981-6.127152 0-8.516675-2.3064005-8.516675-8.1885124v-17.3845005h-4.400318v-4.930112h4.400252v-7.17761966zm9.088075 22.34419286c0-9.5428795 5.608133-15.539494 14.353348-15.539494 8.774563 0 14.35659 5.9964805 14.35659 15.539494 0 9.5690764-5.552644 15.539494-14.35659 15.539494-8.800837 0-14.353348-5.9704511-14.353348-15.539494zm22.380352 0c0-6.5462137-2.993413-10.4098231-8.027038-10.4098231-5.033624 0-8.023762 3.8930558-8.023762 10.4098231 0 6.5723772 2.990138 10.4065737 8.023762 10.4065737 5.033625 0 8.027038-3.8341965 8.027038-10.4065737zm11.45119-15.1665732h5.924819v5.1623332h.143736c.826233-3.323228 3.864594-5.610389 7.279478-5.4797112.715885-.002505 1.429794.0754108 2.128359.2322883v5.8232191c-.903761-.276765-1.846538-.4038369-2.791147-.3762038-1.826286-.074251-3.593724.6551732-4.83824 1.9967475-1.244515 1.3415743-1.841772 3.1612667-1.634948 4.9812798v17.9898435h-6.212057zm44.11767 21.4216059c-.835672 5.5058746-6.18595 9.2844278-13.03128 9.2844278-8.803945 0-14.268443-5.9115583-14.268443-15.3955449 0-9.5134331 5.49388-15.6834431 14.007312-15.6834431 8.37304 0 13.638447 5.7643263 13.638447 14.9604484v2.1330051h-21.374938v.3762038c-.199567 2.2579986.578425 4.493104 2.13608 6.1367778s3.744842 2.537494 6.005211 2.4541017c3.01458.2830728 5.856739-1.4517591 6.988965-4.2660101zm-20.999578-9.0521396h15.130281c.112734-2.0289963-.624226-4.0131091-2.033325-5.474346-1.4091-1.4612369-3.362578-2.2671089-5.389789-2.22346-2.043247-.01222-4.006714.79403-5.453982 2.2395456-1.447269 1.4455157-2.25842 3.4105224-2.253185 5.4582604z" transform="translate(81.748 30.655)"/></g><g transform="translate(118.905 18)"><path d="m7.20440145.9848968c2.6372045-.18966238 5.22028795.81588123 7.03827405 2.73986168 1.817986 1.92398045 2.6792489 4.56359963 2.3467318 7.19232002 0 6.3859168-3.4438741 10.0566673-9.38500585 10.0566673h-7.20440145v-19.988849zm-4.10656264 17.1619942h3.76052728c1.88468249.1129014 3.71980171-.6312753 4.99581371-2.0258999 1.2760121-1.3946246 1.8570691-3.2912215 1.5818332-5.1631767.2552112-1.86418676-.3342137-3.74513302-1.6070619-5.12838451-1.2728483-1.38325149-3.09591814-2.12405283-4.97058501-2.01978877h-3.76052728zm16.99093139-4.7223456c-.2580988-2.7038263 1.0355779-5.32054676 3.3384655-6.7527159 2.3028876-1.43216915 5.2168237-1.43216915 7.5197113 0 2.3028876 1.43216914 3.5965643 4.0488896 3.3384655 6.7527159.2630094 2.7067318-1.0294865 5.3285274-3.334416 6.7637797-2.3049295 1.4352524-5.2228809 1.4352524-7.5278104 0-2.3049295-1.4352523-3.5974253-4.0570479-3.3344159-6.7637797zm11.1412222 0c0-3.2698239-1.4657365-5.18199769-4.038004-5.18199769-2.5820951 0-4.034628 1.91217379-4.034628 5.18203119 0 3.2960208 1.4526332 5.1934546 4.034628 5.1934546 2.5723343 0 4.038004-1.9105658 4.038004-5.1934881z"/><path d="m53.157 20.973h-3.082l-3.111-11.109h-.235l-3.098 11.109h-3.052l-4.149-15.084h3.013l2.696 11.51h.222l3.095-11.51h2.85l3.094 11.51h.235l2.684-11.51h2.97z"/><path d="m60.7788453 5.88867786h2.8595718v2.39634771h.2219881c.7719439-1.76434566 2.5757535-2.84361322 4.4917409-2.68752876 1.4835424-.11178321 2.937309.45857968 3.9508293 1.55004689 1.0135203 1.09146722 1.4768085 2.58559426 1.2590554 4.0605149v9.7652182h-2.9705492v-9.0176347c0-2.42415258-1.0511091-3.62971316-3.2480259-3.62971316-1.0062641-.0469698-1.9828168.34880947-2.6736359 1.0835767-.6908191.73476726-1.0270069 1.73524156-.9204253 2.73912936v8.8248093h-2.9705492z"/><path d="m78.295 0h2.971v20.973h-2.971z"/><path d="m85.3952903 13.4245454c-.2579005-2.7040032 1.0359802-5.32078987 3.3390387-6.7529811 2.3030585-1.43219124 5.2171444-1.43219124 7.5202029 0 2.3030585 1.43219123 3.5969392 4.0489779 3.3390387 6.7529811.2626753 2.7068287-1.0300573 5.3285502-3.3351012 6.7637393s-5.223034 1.4351891-7.5280779 0-3.5977765-4.0569106-3.3351012-6.7637393zm11.1412223 0c0-3.2698239-1.4657366-5.18199769-4.0380041-5.18199769-2.582095 0-4.0346279 1.91217379-4.0346279 5.18203119 0 3.2960208 1.4526332 5.1934546 4.0346279 5.1934546 2.572301 0 4.0380041-1.9105658 4.0380041-5.1934881zm6.1843124 3.2829223c0-2.7153337 2.017381-4.2807166 5.598339-4.5031894l4.07718-.2355377v-1.3020403c0-1.59322129-1.051109-2.49286086-3.081526-2.49286086-1.658276 0-2.807326.61013351-3.137049 1.67663605h-2.875884c.303583-2.59101558 2.735525-4.25291168 6.150016-4.25291168 3.773598 0 5.901956 1.88269388 5.901956 5.06913649v10.3067775h-2.859572v-2.1199066h-.235025c-.971223 1.5481182-2.698375 2.4529064-4.521123 2.3684423-1.27779.1332017-2.552174-.2815308-3.508101-1.1416681-.955927-.8601372-1.504177-2.0853988-1.509211-3.3728777zm9.675519-1.2889753v-1.2611369l-3.675656.2355377c-2.07287.1390246-3.013001.8456713-3.013001 2.1755165 0 1.35765 1.175156 2.1477115 2.791146 2.1477115.956632.0970487 1.911606-.19914 2.64631-.8207621.734703-.6216222 1.186225-1.5154498 1.251201-2.4768667zm6.861642-1.993947c0-4.76653204 2.445011-7.78611172 6.247957-7.78611172 1.920299-.08867377 3.718836.94252904 4.615789 2.64649139h.221988v-8.28492507h2.970549v20.9734108h-2.846502v-2.3832827h-.235025c-.964753 1.6898249-2.785449 2.7035969-4.726765 2.6318854-3.829086.0001675-6.247991-3.0194792-6.247991-7.7974681zm3.06859 0c0 3.1995076 1.50488 5.1247798 4.021692 5.1247798 2.503676 0 4.051041-1.9530436 4.051041-5.1116814 0-3.1438978-1.563611-5.12477982-4.051041-5.12477982-2.5006 0-4.021792 1.93833722-4.021792 5.11168142zm23.277965 0c-.258099-2.7038263 1.035578-5.32054676 3.338466-6.7527159 2.302887-1.43216915 5.216823-1.43216915 7.519711 0 2.302888 1.43216914 3.596564 4.0488896 3.338465 6.7527159.26301 2.7067318-1.029486 5.3285274-3.334416 6.7637797-2.304929 1.4352524-5.22288 1.4352524-7.52781 0-2.304929-1.4352523-3.597425-4.0570479-3.334416-6.7637797zm11.141189 0c0-3.2698239-1.465703-5.18199769-4.037971-5.18199769-2.582095 0-4.034628 1.91217379-4.034628 5.18203119 0 3.2960208 1.452634 5.1934546 4.034628 5.1934546 2.572301 0 4.037971-1.9105658 4.037971-5.1934881zm7.041211-7.53586754h2.859572v2.39634771h.221988c.771944-1.76434566 2.575754-2.84361322 4.491741-2.68752876 1.483542-.11178321 2.937309.45857968 3.950829 1.55004689 1.013521 1.09146722 1.476809 2.58559426 1.259056 4.0605149v9.7652182h-2.970549v-9.0176347c0-2.42415258-1.05111-3.62971316-3.248026-3.62971316-1.006265-.0469698-1.982817.34880947-2.673636 1.0835767-.690819.73476726-1.027007 1.73524156-.920426 2.73912936v8.8248093h-2.970549zm29.568475-3.75563929v3.82434757h3.261096v2.50760085h-3.261096v7.75666531c0 1.5801228.649618 2.2720296 2.128358 2.2720296.378578-.0012142.756777-.0241546 1.132738-.0687083v2.4797625c-.533462.0956446-1.073955.1465286-1.615857.152123-3.303515 0-4.619064-1.1646572-4.619064-4.0729838v-8.51902231h-2.389489v-2.50760085h2.389489v-3.82421357zm7.318654-2.13303857h2.944443v8.31283048h.235025c.809024-1.77978703 2.644403-2.86042994 4.589514-2.70223521 1.475118-.08044235 2.909205.5024773 3.911648 1.58998474s1.468831 2.56633213 1.272131 4.03367549v9.7391888h-2.973525v-9.0047707c0-2.40944617-1.119801-3.6297132-3.218643-3.6297132-1.033463-.08494344-2.051647.29158626-2.782348 1.02892739-.730702.73734111-1.099413 1.76030811-1.007562 2.79542021v8.8101363h-2.970549zm30.273549 16.9004606c-.832975 2.845412-3.580527 4.6838644-6.522159 4.3641313-2.007072.053098-3.93598-.7806456-5.274939-2.2800188s-1.952606-3.512796-1.678125-5.5060594c-.26719-1.9988029.344157-4.01545195 1.67566-5.52749224s3.252142-2.37068748 5.264334-2.35349115c4.188158 0 6.714765 2.86759068 6.714765 7.60447529v1.0387981h-10.628721v.1668295c-.094057 1.1193658.287407 2.2265627 1.050577 3.0492964s1.837233 1.2846646 2.958044 1.2721895c1.453308.1748517 2.868004-.5476125 3.580992-1.828759zm-10.449252-4.8614037h7.602649c.075722-1.0237552-.283465-2.0319524-.989045-2.77613904-.705581-.74418661-1.691935-1.15515286-2.715993-1.13162329-1.037932-.0130686-2.037143.39449886-2.770969 1.13024909-.733827.73575022-1.140069 1.73732064-1.126575 2.77751324z"/></g></g></svg>