<svg height="120" viewBox="0 0 400 120" width="400" xmlns="http://www.w3.org/2000/svg"><g fill="none" transform="translate(29.54 20.369)"><path d="m287.309351 68.8809896h5.528882v-37.193636h-5.528882zm49.799714-23.7946448-6.337802 16.1243081h-.189563l-6.577811-16.1243081h-5.955565l9.866828 22.5361884-5.626663 12.5365915h5.766002l15.203258-35.0716643zm-31.356775 19.5698905c-1.807425 0-4.334835-.9100604-4.334835-3.1586365 0-2.8705749 3.146789-3.9710549 5.860895-3.9710549 2.42965 0 3.576361.5253833 5.051974 1.2435514-.429639 3.4455823-3.383687 5.8859615-6.577811 5.8859615zm.669649-20.3834469c-4.003045 0-8.148317 1.771032-9.86394 5.6945378l4.906858 2.0569069c1.048885-2.0569069 3.00145-2.7262094 5.051974-2.7262094 2.859223 0 5.766002 1.7210285 5.813337 4.7843659v.3822896c-1.001505-.5741819-3.146789-1.4351313-5.766002-1.4351313-5.291983 0-10.675748 2.9178786-10.675748 8.3727518 0 4.9762582 4.337946 8.1824215 9.197246 8.1824215 3.7157 0 5.768891-1.6746843 7.05183-3.6372516h.192674v2.8725831h5.339319v-14.2602753c0-6.6031032-4.912635-10.286989-11.247548-10.286989zm-34.170218 5.3410989h-7.863861v-12.7481193h7.863861c4.133494 0 6.48003 3.4353184 6.48003 6.3739481 0 2.8821777-2.346758 6.3741712-6.48003 6.3741712zm-.142228-17.9256412h-13.248071v37.1936361h5.52666v-14.0904729h7.721633c6.127572 0 12.151362-4.4532401 12.151362-11.5503544 0-7.0957755-6.02379-11.5512469-12.151362-11.5512469zm-72.240587 32.9742368c-3.819704 0-7.016495-3.2121878-7.016495-7.6199092 0-4.4590415 3.196791-7.7165248 7.016495-7.7165248 3.771036 0 6.730484 3.2577064 6.730484 7.7165248 0 4.4077214-2.959448 7.6199092-6.730484 7.6199092zm6.348469-17.4941067h-.191118c-1.240626-1.4854249-3.628586-2.8275107-6.634258-2.8275107-6.302246 0-12.077803 5.5606372-12.077803 12.7017082 0 7.0924286 5.775557 12.6042001 12.077803 12.6042001 3.005672 0 5.393543-1.3423536 6.634258-2.8750375h.191118v1.8198084c0 4.8426029-2.577433 7.4293557-6.730484 7.4293557-3.387909 0-5.488436-2.4439492-6.348469-4.5045601l-4.82041 2.0127717c1.383121 3.3536526 5.057753 7.4771057 11.169101 7.4771057 6.493142 0 11.982689-3.8351684 11.982689-13.1818852v-22.7169242h-5.252205zm9.071908 21.7114978h5.534882v-37.1936361h-5.534882zm13.698311-12.2695042c-.14245-4.8890141 3.773036-7.3807133 6.588034-7.3807133 2.196774 0 4.056602 1.1028229 4.679515 2.6833683zm17.184224-4.2185068c-1.049774-2.8261719-4.247721-8.0509975-10.787309-8.0509975-6.493141 0-11.886684 5.1282101-11.886684 12.6530657 0 7.0935442 5.347319 12.6530657 12.506042 12.6530657 5.775558 0 9.118354-3.5455449 10.503519-5.6072714l-4.296389-2.8761532c-1.432611 2.1092757-3.388798 3.4991338-6.20713 3.4991338-2.814776 0-4.820632-1.2944251-6.107571-3.8347222l16.848433-6.9971518zm-134.247443-4.1685254v5.3678523h12.79272c-.381926 3.019403-1.384321 5.22371-2.912114 6.7577327-1.86225 1.868607-4.774185 3.930222-9.880828 3.930222-7.876529 0-14.0338795-6.3741712-14.0338795-14.2823652 0-7.9081939 6.1573505-14.2832577 14.0338795-14.2832577 4.248609 0 7.35073 1.6778973 9.642152 3.8347221l3.772147-3.7871953c-3.199235-3.0669298-7.446956-5.4153791-13.414299-5.4153791-10.789753 0-19.8592171 8.819013-19.8592171 19.65111 0 10.8309814 9.0694641 19.6502175 19.8592171 19.6502175 5.822893 0 10.215286-1.9174057 13.651642-5.5117715 3.532581-3.5468837 4.630846-8.5311745 4.630846-12.557789 0-1.2447339-.096292-2.3950836-.287122-3.3540988zm32.827943 16.4391453c-3.819704 0-7.11361-3.1633222-7.11361-7.6685517 0-4.5532026 3.293906-7.6676592 7.11361-7.6676592 3.818149 0 7.112055 3.1144566 7.112055 7.6676592 0 4.5052295-3.293906 7.6685517-7.112055 7.6685517zm0-20.3216174c-6.971382 0-12.650936 5.3198793-12.650936 12.6530657 0 7.2852134 5.679554 12.6530657 12.650936 12.6530657 6.968716 0 12.649381-5.3678523 12.649381-12.6530657 0-7.3331864-5.680665-12.6530657-12.649381-12.6530657zm27.594407 20.3216174c-3.817038 0-7.112055-3.1633222-7.112055-7.6685517 0-4.5532026 3.295239-7.6676592 7.112055-7.6676592 3.819704 0 7.112498 3.1144566 7.112498 7.6676592 0 4.5052295-3.292794 7.6685517-7.112498 7.6685517zm0-20.3216174c-6.968716 0-12.64827 5.3198793-12.64827 12.6530657 0 7.2852134 5.679554 12.6530657 12.64827 12.6530657 6.971382 0 12.650936-5.3678523 12.650936-12.6530657 0-7.3331864-5.679554-12.6530657-12.650936-12.6530657" fill="#fff"/><path d="m31.8371937 37.4173468-31.54344894 33.6168529c.00118671.0069171.00355569.0127185.00466685.0198587.96741539 3.6504162 4.28816676 6.3382472 8.22920891 6.3382472 1.57543908 0 3.05456328-.4276521 4.32305698-1.1783973l.1007373-.0592634 35.5080475-20.5726393-16.6206463-18.1650604" fill="#eb3131"/><path d="m63.7517681 31.6940475-.0302234-.0207512-15.3299295-8.9229918-17.2711161 15.4308183 17.3311185 17.3990531 15.2490374-8.8341859c2.6734373-1.4491215 4.4883968-4.2789751 4.4883968-7.5422598 0-3.239856-1.7905363-6.0555407-4.4375059-7.5094596" fill="#f6b60b"/><path d="m.28930014 7.23001088c-.1896296.70210267-.28930014 1.43751875-.28930014 2.20120546v59.40405386c0 .7622587.09849272 1.5001738.29050019 2.1997774l32.63238011-32.7578002-32.63238011-31.04638863" fill="#5778c5"/><path d="m32.0705361 39.133221 16.3279683-16.3891641-35.468046-20.64716498c-1.2892057-.7752895-2.7938864-1.22273325-4.40394904-1.22273325-3.94104215 0-7.26628257 2.69273981-8.23387576 6.34739556-.00118671.00357009-.00118671.00602452-.00118671.00914835l31.77901361 31.90321012" fill="#3bad49"/><path d="m110.886934 8.72944836h-8.643669v2.14765414h6.477141c-.176007 1.7525791-.870523 3.1285138-2.041813 4.1279157-1.171268.9996027-2.66677 1.5014903-4.435284 1.5014903-1.939875 0-3.5834722-.6786071-4.9304135-2.0265612-1.319718-1.3759347-1.990833-3.0774169-1.990833-5.12731755 0-2.04976674.671115-3.75127128 1.990833-5.12709442 1.3469857-1.34797645 2.9905605-2.02209856 4.9304135-2.02209856.995573 0 1.944609.17196674 2.814777.54858884.870522.37633204 1.569505.9017153 2.115882 1.57585971l1.643575-1.65022913c-.745496-.85084152-1.689799-1.50149029-2.861445-1.97568739-1.171267-.47421942-2.393426-.70181261-3.713033-.70181261-2.5878784 0-4.782186.90171529-6.5740334 2.70077252-1.7917364 1.8034529-2.6898824 4.02549876-2.6898824 6.65174567 0 2.62624692.8980794 4.85309012 2.6898824 6.65219192 1.7917363 1.7986779 3.986155 2.7007725 6.5740334 2.7007725 2.717661 0 4.884412-.8740471 6.551144-2.6498987 1.467568-1.4779723 2.217508-3.4768207 2.217508-5.9776682 0-.42305559-.050957-.87404711-.125049-1.34826653zm3.348575-8.32997769v17.90607273h10.411961v-2.198818h-8.120316v-5.6802351h7.324285v-2.14765414h-7.324285v-5.67577252h8.120316v-2.20359297zm25.012084 2.20365991v-2.20359297h-12.254921v2.20359297h4.981749v15.70236822h2.291645v-15.70236822zm11.094876-2.20359297h-2.291645v17.90600579h2.291645zm15.126366 2.20359297v-2.20359297h-12.254699v2.20359297h4.981305v15.70236822h2.291645v-15.70236822zm23.125344.12553326c-1.768625-1.82692623-3.935264-2.72866384-6.523365-2.72866384-2.592545 0-4.759074.90171529-6.52781 2.70077252-1.768624 1.77578471-2.638769 4.00229318-2.638769 6.65174567 0 2.64945251.870234 4.87629561 2.638769 6.65219191 1.768625 1.7986779 3.935265 2.7007725 6.52781 2.7007725 2.564766 0 4.754629-.9020276 6.523365-2.7007725 1.768624-1.7757847 2.638769-4.0025163 2.638769-6.65219191 0-2.62624691-.870234-4.84840434-2.638769-6.62385435zm-11.407555 1.49671529c1.319429-1.34797644 2.939892-2.02209855 4.88419-2.02209855 1.939875 0 3.560361.67414442 4.856633 2.02209855 1.319429 1.32477087 1.967432 3.0537651 1.967432 5.12709443 0 2.07803744-.648003 3.80236814-1.967432 5.12731754-1.296317 1.3479765-2.91678 2.0265612-4.856633 2.0265612-1.94432 0-3.564805-.678607-4.88419-2.0265612-1.291873-1.3527291-1.939876-3.0493025-1.939876-5.12731754 0-2.07328471.648003-3.77447686 1.939876-5.12709443zm19.49098 2.92858884-.097115-3.45406135h.097115l9.065019 14.60545828h2.393427v-17.90600579h-2.291645v10.47754259l.097115 3.4540613h-.097115l-8.666781-13.93160389h-2.791665v17.90600579h2.291645z" fill="#fff" stroke="#fff" stroke-width=".593"/></g></svg>